<?xml version="1.0" encoding="utf-8" standalone="no"?>
<!DOCTYPE svg PUBLIC "-//W3C//DTD SVG 1.1//EN"
  "http://www.w3.org/Graphics/SVG/1.1/DTD/svg11.dtd">
<svg xmlns:xlink="http://www.w3.org/1999/xlink" width="513.36pt" height="513.36pt" viewBox="0 0 513.36 513.36" xmlns="http://www.w3.org/2000/svg" version="1.1">
 <metadata>
  <rdf:RDF xmlns:dc="http://purl.org/dc/elements/1.1/" xmlns:cc="http://creativecommons.org/ns#" xmlns:rdf="http://www.w3.org/1999/02/22-rdf-syntax-ns#">
   <cc:Work>
    <dc:type rdf:resource="http://purl.org/dc/dcmitype/StillImage"/>
    <dc:date>2026-04-30T14:34:54.266945</dc:date>
    <dc:format>image/svg+xml</dc:format>
    <dc:creator>
     <cc:Agent>
      <dc:title>Matplotlib v3.10.9, https://matplotlib.org/</dc:title>
     </cc:Agent>
    </dc:creator>
   </cc:Work>
  </rdf:RDF>
 </metadata>
 <defs>
  <style type="text/css">*{stroke-linejoin: round; stroke-linecap: butt}</style>
 </defs>
 <g id="figure_1">
  <g id="patch_1">
   <path d="M 0 513.36 
L 513.36 513.36 
L 513.36 -0 
L 0 -0 
z
" style="fill: #ffffff"/>
  </g>
  <g id="axes_1">
   <g id="patch_2">
    <path d="M 7.2 506.16 
L 506.16 506.16 
L 506.16 7.2 
L 7.2 7.2 
z
" style="fill: #ffffff"/>
   </g>
   <g id="PathCollection_1">
    <defs>
     <path id="mb66dfa3d4f" d="M 0 0.5 
C 0.132602 0.5 0.25979 0.447317 0.353553 0.353553 
C 0.447317 0.25979 0.5 0.132602 0.5 0 
C 0.5 -0.132602 0.447317 -0.25979 0.353553 -0.353553 
C 0.25979 -0.447317 0.132602 -0.5 0 -0.5 
C -0.132602 -0.5 -0.25979 -0.447317 -0.353553 -0.353553 
C -0.447317 -0.25979 -0.5 -0.132602 -0.5 0 
C -0.5 0.132602 -0.447317 0.25979 -0.353553 0.353553 
C -0.25979 0.447317 -0.132602 0.5 0 0.5 
z
" style="stroke: #1f77b4"/>
    </defs>
    <g clip-path="url(#p8c4df240bb)">
     <use xlink:href="#mb66dfa3d4f" x="238.047488" y="256.397299" style="fill: #1f77b4; stroke: #1f77b4"/>
    </g>
   </g>
   <g id="PathCollection_2">
    <defs>
     <path id="m615ef1f47b" d="M 0 0.5 
C 0.132602 0.5 0.25979 0.447317 0.353553 0.353553 
C 0.447317 0.25979 0.5 0.132602 0.5 0 
C 0.5 -0.132602 0.447317 -0.25979 0.353553 -0.353553 
C 0.25979 -0.447317 0.132602 -0.5 0 -0.5 
C -0.132602 -0.5 -0.25979 -0.447317 -0.353553 -0.353553 
C -0.447317 -0.25979 -0.5 -0.132602 -0.5 0 
C -0.5 0.132602 -0.447317 0.25979 -0.353553 0.353553 
C -0.25979 0.447317 -0.132602 0.5 0 0.5 
z
" style="stroke: #ff7f0e"/>
    </defs>
    <g clip-path="url(#p8c4df240bb)">
     <use xlink:href="#m615ef1f47b" x="115.074014" y="273.967719" style="fill: #ff7f0e; stroke: #ff7f0e"/>
    </g>
   </g>
   <g id="PathCollection_3">
    <defs>
     <path id="m9134b8e864" d="M 0 0.5 
C 0.132602 0.5 0.25979 0.447317 0.353553 0.353553 
C 0.447317 0.25979 0.5 0.132602 0.5 0 
C 0.5 -0.132602 0.447317 -0.25979 0.353553 -0.353553 
C 0.25979 -0.447317 0.132602 -0.5 0 -0.5 
C -0.132602 -0.5 -0.25979 -0.447317 -0.353553 -0.353553 
C -0.447317 -0.25979 -0.5 -0.132602 -0.5 0 
C -0.5 0.132602 -0.447317 0.25979 -0.353553 0.353553 
C -0.25979 0.447317 -0.132602 0.5 0 0.5 
z
" style="stroke: #2ca02c"/>
    </defs>
    <g clip-path="url(#p8c4df240bb)">
     <use xlink:href="#m9134b8e864" x="292.484543" y="235.068394" style="fill: #2ca02c; stroke: #2ca02c"/>
    </g>
   </g>
   <g id="PathCollection_4">
    <defs>
     <path id="m958926f02f" d="M 0 0.5 
C 0.132602 0.5 0.25979 0.447317 0.353553 0.353553 
C 0.447317 0.25979 0.5 0.132602 0.5 0 
C 0.5 -0.132602 0.447317 -0.25979 0.353553 -0.353553 
C 0.25979 -0.447317 0.132602 -0.5 0 -0.5 
C -0.132602 -0.5 -0.25979 -0.447317 -0.353553 -0.353553 
C -0.447317 -0.25979 -0.5 -0.132602 -0.5 0 
C -0.5 0.132602 -0.447317 0.25979 -0.353553 0.353553 
C -0.25979 0.447317 -0.132602 0.5 0 0.5 
z
" style="stroke: #d62728"/>
    </defs>
    <g clip-path="url(#p8c4df240bb)">
     <use xlink:href="#m958926f02f" x="217.3052" y="266.305585" style="fill: #d62728; stroke: #d62728"/>
    </g>
   </g>
   <g id="PathCollection_5">
    <defs>
     <path id="m098894dd03" d="M 0 0.5 
C 0.132602 0.5 0.25979 0.447317 0.353553 0.353553 
C 0.447317 0.25979 0.5 0.132602 0.5 0 
C 0.5 -0.132602 0.447317 -0.25979 0.353553 -0.353553 
C 0.25979 -0.447317 0.132602 -0.5 0 -0.5 
C -0.132602 -0.5 -0.25979 -0.447317 -0.353553 -0.353553 
C -0.447317 -0.25979 -0.5 -0.132602 -0.5 0 
C -0.5 0.132602 -0.447317 0.25979 -0.353553 0.353553 
C -0.25979 0.447317 -0.132602 0.5 0 0.5 
z
" style="stroke: #9467bd"/>
    </defs>
    <g clip-path="url(#p8c4df240bb)">
     <use xlink:href="#m098894dd03" x="255.211337" y="275.770584" style="fill: #9467bd; stroke: #9467bd"/>
    </g>
   </g>
   <g id="PathCollection_6">
    <defs>
     <path id="m5d1d2bb392" d="M 0 0.5 
C 0.132602 0.5 0.25979 0.447317 0.353553 0.353553 
C 0.447317 0.25979 0.5 0.132602 0.5 0 
C 0.5 -0.132602 0.447317 -0.25979 0.353553 -0.353553 
C 0.25979 -0.447317 0.132602 -0.5 0 -0.5 
C -0.132602 -0.5 -0.25979 -0.447317 -0.353553 -0.353553 
C -0.447317 -0.25979 -0.5 -0.132602 -0.5 0 
C -0.5 0.132602 -0.447317 0.25979 -0.353553 0.353553 
C -0.25979 0.447317 -0.132602 0.5 0 0.5 
z
" style="stroke: #8c564b"/>
    </defs>
    <g clip-path="url(#p8c4df240bb)">
     <use xlink:href="#m5d1d2bb392" x="196.965871" y="239.685265" style="fill: #8c564b; stroke: #8c564b"/>
    </g>
   </g>
   <g id="PathCollection_7">
    <defs>
     <path id="mf5151056b0" d="M 0 0.5 
C 0.132602 0.5 0.25979 0.447317 0.353553 0.353553 
C 0.447317 0.25979 0.5 0.132602 0.5 0 
C 0.5 -0.132602 0.447317 -0.25979 0.353553 -0.353553 
C 0.25979 -0.447317 0.132602 -0.5 0 -0.5 
C -0.132602 -0.5 -0.25979 -0.447317 -0.353553 -0.353553 
C -0.447317 -0.25979 -0.5 -0.132602 -0.5 0 
C -0.5 0.132602 -0.447317 0.25979 -0.353553 0.353553 
C -0.25979 0.447317 -0.132602 0.5 0 0.5 
z
" style="stroke: #e377c2"/>
    </defs>
    <g clip-path="url(#p8c4df240bb)">
     <use xlink:href="#mf5151056b0" x="103.301791" y="141.912322" style="fill: #e377c2; stroke: #e377c2"/>
    </g>
   </g>
   <g id="PathCollection_8">
    <defs>
     <path id="mab9b78138a" d="M 0 0.5 
C 0.132602 0.5 0.25979 0.447317 0.353553 0.353553 
C 0.447317 0.25979 0.5 0.132602 0.5 0 
C 0.5 -0.132602 0.447317 -0.25979 0.353553 -0.353553 
C 0.25979 -0.447317 0.132602 -0.5 0 -0.5 
C -0.132602 -0.5 -0.25979 -0.447317 -0.353553 -0.353553 
C -0.447317 -0.25979 -0.5 -0.132602 -0.5 0 
C -0.5 0.132602 -0.447317 0.25979 -0.353553 0.353553 
C -0.25979 0.447317 -0.132602 0.5 0 0.5 
z
" style="stroke: #7f7f7f"/>
    </defs>
    <g clip-path="url(#p8c4df240bb)">
     <use xlink:href="#mab9b78138a" x="235.29979" y="251.413252" style="fill: #7f7f7f; stroke: #7f7f7f"/>
    </g>
   </g>
   <g id="PathCollection_9">
    <defs>
     <path id="m6a0f7873d5" d="M 0 0.5 
C 0.132602 0.5 0.25979 0.447317 0.353553 0.353553 
C 0.447317 0.25979 0.5 0.132602 0.5 0 
C 0.5 -0.132602 0.447317 -0.25979 0.353553 -0.353553 
C 0.25979 -0.447317 0.132602 -0.5 0 -0.5 
C -0.132602 -0.5 -0.25979 -0.447317 -0.353553 -0.353553 
C -0.447317 -0.25979 -0.5 -0.132602 -0.5 0 
C -0.5 0.132602 -0.447317 0.25979 -0.353553 0.353553 
C -0.25979 0.447317 -0.132602 0.5 0 0.5 
z
" style="stroke: #bcbd22"/>
    </defs>
    <g clip-path="url(#p8c4df240bb)">
     <use xlink:href="#m6a0f7873d5" x="238.946772" y="197.186413" style="fill: #bcbd22; stroke: #bcbd22"/>
    </g>
   </g>
   <g id="PathCollection_10">
    <defs>
     <path id="m70f4a0506c" d="M 0 0.5 
C 0.132602 0.5 0.25979 0.447317 0.353553 0.353553 
C 0.447317 0.25979 0.5 0.132602 0.5 0 
C 0.5 -0.132602 0.447317 -0.25979 0.353553 -0.353553 
C 0.25979 -0.447317 0.132602 -0.5 0 -0.5 
C -0.132602 -0.5 -0.25979 -0.447317 -0.353553 -0.353553 
C -0.447317 -0.25979 -0.5 -0.132602 -0.5 0 
C -0.5 0.132602 -0.447317 0.25979 -0.353553 0.353553 
C -0.25979 0.447317 -0.132602 0.5 0 0.5 
z
" style="stroke: #17becf"/>
    </defs>
    <g clip-path="url(#p8c4df240bb)">
     <use xlink:href="#m70f4a0506c" x="333.768249" y="294.204126" style="fill: #17becf; stroke: #17becf"/>
    </g>
   </g>
   <g id="PathCollection_11">
    <g clip-path="url(#p8c4df240bb)">
     <use xlink:href="#mb66dfa3d4f" x="210.973861" y="256.201987" style="fill: #1f77b4; stroke: #1f77b4"/>
    </g>
   </g>
   <g id="PathCollection_12">
    <g clip-path="url(#p8c4df240bb)">
     <use xlink:href="#m615ef1f47b" x="175.805282" y="250.004831" style="fill: #ff7f0e; stroke: #ff7f0e"/>
    </g>
   </g>
   <g id="PathCollection_13">
    <g clip-path="url(#p8c4df240bb)">
     <use xlink:href="#m9134b8e864" x="288.436204" y="184.92323" style="fill: #2ca02c; stroke: #2ca02c"/>
    </g>
   </g>
   <g id="PathCollection_14">
    <g clip-path="url(#p8c4df240bb)">
     <use xlink:href="#m958926f02f" x="337.823268" y="440.023234" style="fill: #d62728; stroke: #d62728"/>
    </g>
   </g>
   <g id="PathCollection_15">
    <g clip-path="url(#p8c4df240bb)">
     <use xlink:href="#m098894dd03" x="215.361506" y="192.177213" style="fill: #9467bd; stroke: #9467bd"/>
    </g>
   </g>
   <g id="PathCollection_16">
    <g clip-path="url(#p8c4df240bb)">
     <use xlink:href="#m5d1d2bb392" x="222.473131" y="278.741256" style="fill: #8c564b; stroke: #8c564b"/>
    </g>
   </g>
   <g id="PathCollection_17">
    <g clip-path="url(#p8c4df240bb)">
     <use xlink:href="#mf5151056b0" x="278.652115" y="229.798969" style="fill: #e377c2; stroke: #e377c2"/>
    </g>
   </g>
   <g id="PathCollection_18">
    <g clip-path="url(#p8c4df240bb)">
     <use xlink:href="#mab9b78138a" x="194.136057" y="234.803149" style="fill: #7f7f7f; stroke: #7f7f7f"/>
    </g>
   </g>
   <g id="PathCollection_19">
    <g clip-path="url(#p8c4df240bb)">
     <use xlink:href="#m6a0f7873d5" x="222.774329" y="249.779039" style="fill: #bcbd22; stroke: #bcbd22"/>
    </g>
   </g>
   <g id="PathCollection_20">
    <g clip-path="url(#p8c4df240bb)">
     <use xlink:href="#m70f4a0506c" x="249.475254" y="239.957437" style="fill: #17becf; stroke: #17becf"/>
    </g>
   </g>
   <g id="PathCollection_21">
    <g clip-path="url(#p8c4df240bb)">
     <use xlink:href="#mb66dfa3d4f" x="294.912647" y="237.133918" style="fill: #1f77b4; stroke: #1f77b4"/>
    </g>
   </g>
   <g id="PathCollection_22">
    <g clip-path="url(#p8c4df240bb)">
     <use xlink:href="#m615ef1f47b" x="251.622744" y="233.645806" style="fill: #ff7f0e; stroke: #ff7f0e"/>
    </g>
   </g>
   <g id="PathCollection_23">
    <g clip-path="url(#p8c4df240bb)">
     <use xlink:href="#m9134b8e864" x="182.316029" y="286.911894" style="fill: #2ca02c; stroke: #2ca02c"/>
    </g>
   </g>
   <g id="PathCollection_24">
    <g clip-path="url(#p8c4df240bb)">
     <use xlink:href="#m958926f02f" x="264.080517" y="268.267826" style="fill: #d62728; stroke: #d62728"/>
    </g>
   </g>
   <g id="PathCollection_25">
    <g clip-path="url(#p8c4df240bb)">
     <use xlink:href="#m098894dd03" x="199.849254" y="222.948818" style="fill: #9467bd; stroke: #9467bd"/>
    </g>
   </g>
   <g id="PathCollection_26">
    <g clip-path="url(#p8c4df240bb)">
     <use xlink:href="#m5d1d2bb392" x="312.273389" y="361.396911" style="fill: #8c564b; stroke: #8c564b"/>
    </g>
   </g>
   <g id="PathCollection_27">
    <g clip-path="url(#p8c4df240bb)">
     <use xlink:href="#mf5151056b0" x="164.770979" y="469.413707" style="fill: #e377c2; stroke: #e377c2"/>
    </g>
   </g>
   <g id="PathCollection_28">
    <g clip-path="url(#p8c4df240bb)">
     <use xlink:href="#mab9b78138a" x="330.697526" y="223.755196" style="fill: #7f7f7f; stroke: #7f7f7f"/>
    </g>
   </g>
   <g id="PathCollection_29">
    <g clip-path="url(#p8c4df240bb)">
     <use xlink:href="#m6a0f7873d5" x="252.133291" y="353.551906" style="fill: #bcbd22; stroke: #bcbd22"/>
    </g>
   </g>
   <g id="PathCollection_30">
    <g clip-path="url(#p8c4df240bb)">
     <use xlink:href="#m70f4a0506c" x="214.214852" y="302.087174" style="fill: #17becf; stroke: #17becf"/>
    </g>
   </g>
   <g id="PathCollection_31">
    <g clip-path="url(#p8c4df240bb)">
     <use xlink:href="#mb66dfa3d4f" x="265.467593" y="224.188628" style="fill: #1f77b4; stroke: #1f77b4"/>
    </g>
   </g>
   <g id="PathCollection_32">
    <g clip-path="url(#p8c4df240bb)">
     <use xlink:href="#m615ef1f47b" x="263.988342" y="113.54927" style="fill: #ff7f0e; stroke: #ff7f0e"/>
    </g>
   </g>
   <g id="PathCollection_33">
    <g clip-path="url(#p8c4df240bb)">
     <use xlink:href="#m9134b8e864" x="426.216975" y="166.415959" style="fill: #2ca02c; stroke: #2ca02c"/>
    </g>
   </g>
   <g id="PathCollection_34">
    <g clip-path="url(#p8c4df240bb)">
     <use xlink:href="#m958926f02f" x="245.606211" y="297.023085" style="fill: #d62728; stroke: #d62728"/>
    </g>
   </g>
   <g id="PathCollection_35">
    <g clip-path="url(#p8c4df240bb)">
     <use xlink:href="#m098894dd03" x="414.226036" y="162.821572" style="fill: #9467bd; stroke: #9467bd"/>
    </g>
   </g>
   <g id="PathCollection_36">
    <g clip-path="url(#p8c4df240bb)">
     <use xlink:href="#m5d1d2bb392" x="232.723971" y="254.982658" style="fill: #8c564b; stroke: #8c564b"/>
    </g>
   </g>
   <g id="PathCollection_37">
    <g clip-path="url(#p8c4df240bb)">
     <use xlink:href="#mf5151056b0" x="239.452962" y="250.949501" style="fill: #e377c2; stroke: #e377c2"/>
    </g>
   </g>
   <g id="PathCollection_38">
    <g clip-path="url(#p8c4df240bb)">
     <use xlink:href="#mab9b78138a" x="242.967273" y="409.276381" style="fill: #7f7f7f; stroke: #7f7f7f"/>
    </g>
   </g>
   <g id="PathCollection_39">
    <g clip-path="url(#p8c4df240bb)">
     <use xlink:href="#m6a0f7873d5" x="227.228197" y="175.721909" style="fill: #bcbd22; stroke: #bcbd22"/>
    </g>
   </g>
   <g id="PathCollection_40">
    <g clip-path="url(#p8c4df240bb)">
     <use xlink:href="#m70f4a0506c" x="87.107427" y="323.760033" style="fill: #17becf; stroke: #17becf"/>
    </g>
   </g>
   <g id="PathCollection_41">
    <g clip-path="url(#p8c4df240bb)">
     <use xlink:href="#mb66dfa3d4f" x="237.249812" y="259.665022" style="fill: #1f77b4; stroke: #1f77b4"/>
    </g>
   </g>
   <g id="PathCollection_42">
    <g clip-path="url(#p8c4df240bb)">
     <use xlink:href="#m615ef1f47b" x="108.091922" y="277.3137" style="fill: #ff7f0e; stroke: #ff7f0e"/>
    </g>
   </g>
   <g id="PathCollection_43">
    <g clip-path="url(#p8c4df240bb)">
     <use xlink:href="#m9134b8e864" x="253.767255" y="229.436298" style="fill: #2ca02c; stroke: #2ca02c"/>
    </g>
   </g>
   <g id="PathCollection_44">
    <g clip-path="url(#p8c4df240bb)">
     <use xlink:href="#m958926f02f" x="198.713774" y="227.874257" style="fill: #d62728; stroke: #d62728"/>
    </g>
   </g>
   <g id="PathCollection_45">
    <g clip-path="url(#p8c4df240bb)">
     <use xlink:href="#m098894dd03" x="260.022356" y="306.181566" style="fill: #9467bd; stroke: #9467bd"/>
    </g>
   </g>
   <g id="PathCollection_46">
    <g clip-path="url(#p8c4df240bb)">
     <use xlink:href="#m5d1d2bb392" x="219.87256" y="238.706851" style="fill: #8c564b; stroke: #8c564b"/>
    </g>
   </g>
   <g id="PathCollection_47">
    <g clip-path="url(#p8c4df240bb)">
     <use xlink:href="#mf5151056b0" x="348.693684" y="317.532474" style="fill: #e377c2; stroke: #e377c2"/>
    </g>
   </g>
   <g id="PathCollection_48">
    <g clip-path="url(#p8c4df240bb)">
     <use xlink:href="#mab9b78138a" x="284.650597" y="271.648807" style="fill: #7f7f7f; stroke: #7f7f7f"/>
    </g>
   </g>
   <g id="PathCollection_49">
    <g clip-path="url(#p8c4df240bb)">
     <use xlink:href="#m6a0f7873d5" x="417.489702" y="280.213574" style="fill: #bcbd22; stroke: #bcbd22"/>
    </g>
   </g>
   <g id="PathCollection_50">
    <g clip-path="url(#p8c4df240bb)">
     <use xlink:href="#m70f4a0506c" x="131.066962" y="158.024179" style="fill: #17becf; stroke: #17becf"/>
    </g>
   </g>
   <g id="PathCollection_51">
    <g clip-path="url(#p8c4df240bb)">
     <use xlink:href="#mb66dfa3d4f" x="239.824174" y="238.526337" style="fill: #1f77b4; stroke: #1f77b4"/>
    </g>
   </g>
   <g id="PathCollection_52">
    <g clip-path="url(#p8c4df240bb)">
     <use xlink:href="#m615ef1f47b" x="348.937553" y="223.255002" style="fill: #ff7f0e; stroke: #ff7f0e"/>
    </g>
   </g>
   <g id="PathCollection_53">
    <g clip-path="url(#p8c4df240bb)">
     <use xlink:href="#m9134b8e864" x="360.672456" y="242.195403" style="fill: #2ca02c; stroke: #2ca02c"/>
    </g>
   </g>
   <g id="PathCollection_54">
    <g clip-path="url(#p8c4df240bb)">
     <use xlink:href="#m958926f02f" x="131.426618" y="367.18235" style="fill: #d62728; stroke: #d62728"/>
    </g>
   </g>
   <g id="PathCollection_55">
    <g clip-path="url(#p8c4df240bb)">
     <use xlink:href="#m098894dd03" x="236.839719" y="242.952221" style="fill: #9467bd; stroke: #9467bd"/>
    </g>
   </g>
   <g id="PathCollection_56">
    <g clip-path="url(#p8c4df240bb)">
     <use xlink:href="#m5d1d2bb392" x="252.276542" y="278.376847" style="fill: #8c564b; stroke: #8c564b"/>
    </g>
   </g>
   <g id="PathCollection_57">
    <g clip-path="url(#p8c4df240bb)">
     <use xlink:href="#mf5151056b0" x="9.670099" y="44.615302" style="fill: #e377c2; stroke: #e377c2"/>
    </g>
   </g>
   <g id="PathCollection_58">
    <g clip-path="url(#p8c4df240bb)">
     <use xlink:href="#mab9b78138a" x="357.835755" y="206.097951" style="fill: #7f7f7f; stroke: #7f7f7f"/>
    </g>
   </g>
   <g id="PathCollection_59">
    <g clip-path="url(#p8c4df240bb)">
     <use xlink:href="#m6a0f7873d5" x="217.594947" y="255.487152" style="fill: #bcbd22; stroke: #bcbd22"/>
    </g>
   </g>
   <g id="PathCollection_60">
    <g clip-path="url(#p8c4df240bb)">
     <use xlink:href="#m70f4a0506c" x="85.297127" y="309.702873" style="fill: #17becf; stroke: #17becf"/>
    </g>
   </g>
   <g id="PathCollection_61">
    <g clip-path="url(#p8c4df240bb)">
     <use xlink:href="#mb66dfa3d4f" x="169.401857" y="275.580026" style="fill: #1f77b4; stroke: #1f77b4"/>
    </g>
   </g>
   <g id="PathCollection_62">
    <g clip-path="url(#p8c4df240bb)">
     <use xlink:href="#m615ef1f47b" x="399.03618" y="205.238609" style="fill: #ff7f0e; stroke: #ff7f0e"/>
    </g>
   </g>
   <g id="PathCollection_63">
    <g clip-path="url(#p8c4df240bb)">
     <use xlink:href="#m9134b8e864" x="193.261864" y="279.506052" style="fill: #2ca02c; stroke: #2ca02c"/>
    </g>
   </g>
   <g id="PathCollection_64">
    <g clip-path="url(#p8c4df240bb)">
     <use xlink:href="#m958926f02f" x="233.765115" y="258.438617" style="fill: #d62728; stroke: #d62728"/>
    </g>
   </g>
   <g id="PathCollection_65">
    <g clip-path="url(#p8c4df240bb)">
     <use xlink:href="#m098894dd03" x="214.262009" y="97.497909" style="fill: #9467bd; stroke: #9467bd"/>
    </g>
   </g>
   <g id="PathCollection_66">
    <g clip-path="url(#p8c4df240bb)">
     <use xlink:href="#m5d1d2bb392" x="245.296864" y="243.576768" style="fill: #8c564b; stroke: #8c564b"/>
    </g>
   </g>
   <g id="PathCollection_67">
    <g clip-path="url(#p8c4df240bb)">
     <use xlink:href="#mf5151056b0" x="225.830577" y="239.771214" style="fill: #e377c2; stroke: #e377c2"/>
    </g>
   </g>
   <g id="PathCollection_68">
    <g clip-path="url(#p8c4df240bb)">
     <use xlink:href="#mab9b78138a" x="277.012374" y="269.331008" style="fill: #7f7f7f; stroke: #7f7f7f"/>
    </g>
   </g>
   <g id="PathCollection_69">
    <g clip-path="url(#p8c4df240bb)">
     <use xlink:href="#m6a0f7873d5" x="341.066234" y="163.883199" style="fill: #bcbd22; stroke: #bcbd22"/>
    </g>
   </g>
   <g id="PathCollection_70">
    <g clip-path="url(#p8c4df240bb)">
     <use xlink:href="#m70f4a0506c" x="287.199335" y="361.621552" style="fill: #17becf; stroke: #17becf"/>
    </g>
   </g>
   <g id="PathCollection_71">
    <g clip-path="url(#p8c4df240bb)">
     <use xlink:href="#mb66dfa3d4f" x="222.619441" y="163.957939" style="fill: #1f77b4; stroke: #1f77b4"/>
    </g>
   </g>
   <g id="PathCollection_72">
    <g clip-path="url(#p8c4df240bb)">
     <use xlink:href="#m615ef1f47b" x="219.812791" y="235.287594" style="fill: #ff7f0e; stroke: #ff7f0e"/>
    </g>
   </g>
   <g id="PathCollection_73">
    <g clip-path="url(#p8c4df240bb)">
     <use xlink:href="#m9134b8e864" x="503.689901" y="449.609947" style="fill: #2ca02c; stroke: #2ca02c"/>
    </g>
   </g>
   <g id="PathCollection_74">
    <g clip-path="url(#p8c4df240bb)">
     <use xlink:href="#m958926f02f" x="141.588649" y="259.405377" style="fill: #d62728; stroke: #d62728"/>
    </g>
   </g>
   <g id="PathCollection_75">
    <g clip-path="url(#p8c4df240bb)">
     <use xlink:href="#m098894dd03" x="277.557414" y="207.612474" style="fill: #9467bd; stroke: #9467bd"/>
    </g>
   </g>
   <g id="PathCollection_76">
    <g clip-path="url(#p8c4df240bb)">
     <use xlink:href="#m5d1d2bb392" x="367.115053" y="275.284309" style="fill: #8c564b; stroke: #8c564b"/>
    </g>
   </g>
   <g id="PathCollection_77">
    <g clip-path="url(#p8c4df240bb)">
     <use xlink:href="#mf5151056b0" x="220.198386" y="244.69423" style="fill: #e377c2; stroke: #e377c2"/>
    </g>
   </g>
   <g id="PathCollection_78">
    <g clip-path="url(#p8c4df240bb)">
     <use xlink:href="#mab9b78138a" x="220.021605" y="38.820787" style="fill: #7f7f7f; stroke: #7f7f7f"/>
    </g>
   </g>
   <g id="PathCollection_79">
    <g clip-path="url(#p8c4df240bb)">
     <use xlink:href="#m6a0f7873d5" x="255.034893" y="236.465372" style="fill: #bcbd22; stroke: #bcbd22"/>
    </g>
   </g>
   <g id="PathCollection_80">
    <g clip-path="url(#p8c4df240bb)">
     <use xlink:href="#m70f4a0506c" x="205.459485" y="218.258647" style="fill: #17becf; stroke: #17becf"/>
    </g>
   </g>
   <g id="PathCollection_81">
    <g clip-path="url(#p8c4df240bb)">
     <use xlink:href="#mb66dfa3d4f" x="374.041975" y="159.310237" style="fill: #1f77b4; stroke: #1f77b4"/>
    </g>
   </g>
   <g id="PathCollection_82">
    <g clip-path="url(#p8c4df240bb)">
     <use xlink:href="#m615ef1f47b" x="291.675762" y="104.515273" style="fill: #ff7f0e; stroke: #ff7f0e"/>
    </g>
   </g>
   <g id="PathCollection_83">
    <g clip-path="url(#p8c4df240bb)">
     <use xlink:href="#m9134b8e864" x="232.974091" y="257.718777" style="fill: #2ca02c; stroke: #2ca02c"/>
    </g>
   </g>
   <g id="PathCollection_84">
    <g clip-path="url(#p8c4df240bb)">
     <use xlink:href="#m958926f02f" x="233.587292" y="218.595345" style="fill: #d62728; stroke: #d62728"/>
    </g>
   </g>
   <g id="PathCollection_85">
    <g clip-path="url(#p8c4df240bb)">
     <use xlink:href="#m098894dd03" x="299.970612" y="190.84207" style="fill: #9467bd; stroke: #9467bd"/>
    </g>
   </g>
   <g id="PathCollection_86">
    <g clip-path="url(#p8c4df240bb)">
     <use xlink:href="#m5d1d2bb392" x="270.800117" y="287.138994" style="fill: #8c564b; stroke: #8c564b"/>
    </g>
   </g>
   <g id="PathCollection_87">
    <g clip-path="url(#p8c4df240bb)">
     <use xlink:href="#mf5151056b0" x="300.179201" y="73.649044" style="fill: #e377c2; stroke: #e377c2"/>
    </g>
   </g>
   <g id="PathCollection_88">
    <g clip-path="url(#p8c4df240bb)">
     <use xlink:href="#mab9b78138a" x="224.037314" y="388.57105" style="fill: #7f7f7f; stroke: #7f7f7f"/>
    </g>
   </g>
   <g id="PathCollection_89">
    <g clip-path="url(#p8c4df240bb)">
     <use xlink:href="#m6a0f7873d5" x="261.494629" y="260.41048" style="fill: #bcbd22; stroke: #bcbd22"/>
    </g>
   </g>
   <g id="PathCollection_90">
    <g clip-path="url(#p8c4df240bb)">
     <use xlink:href="#m70f4a0506c" x="256.216928" y="253.64076" style="fill: #17becf; stroke: #17becf"/>
    </g>
   </g>
   <g id="PathCollection_91">
    <g clip-path="url(#p8c4df240bb)">
     <use xlink:href="#mb66dfa3d4f" x="429.460156" y="175.869276" style="fill: #1f77b4; stroke: #1f77b4"/>
    </g>
   </g>
   <g id="PathCollection_92">
    <g clip-path="url(#p8c4df240bb)">
     <use xlink:href="#m615ef1f47b" x="228.528138" y="275.645858" style="fill: #ff7f0e; stroke: #ff7f0e"/>
    </g>
   </g>
   <g id="PathCollection_93">
    <g clip-path="url(#p8c4df240bb)">
     <use xlink:href="#m9134b8e864" x="120.996459" y="474.539213" style="fill: #2ca02c; stroke: #2ca02c"/>
    </g>
   </g>
   <g id="PathCollection_94">
    <g clip-path="url(#p8c4df240bb)">
     <use xlink:href="#m958926f02f" x="258.072998" y="176.350074" style="fill: #d62728; stroke: #d62728"/>
    </g>
   </g>
   <g id="PathCollection_95">
    <g clip-path="url(#p8c4df240bb)">
     <use xlink:href="#m098894dd03" x="227.283736" y="116.669627" style="fill: #9467bd; stroke: #9467bd"/>
    </g>
   </g>
   <g id="PathCollection_96">
    <g clip-path="url(#p8c4df240bb)">
     <use xlink:href="#m5d1d2bb392" x="310.845069" y="385.126992" style="fill: #8c564b; stroke: #8c564b"/>
    </g>
   </g>
   <g id="PathCollection_97">
    <g clip-path="url(#p8c4df240bb)">
     <use xlink:href="#mf5151056b0" x="230.088889" y="212.733156" style="fill: #e377c2; stroke: #e377c2"/>
    </g>
   </g>
   <g id="PathCollection_98">
    <g clip-path="url(#p8c4df240bb)">
     <use xlink:href="#mab9b78138a" x="265.237504" y="209.349346" style="fill: #7f7f7f; stroke: #7f7f7f"/>
    </g>
   </g>
   <g id="PathCollection_99">
    <g clip-path="url(#p8c4df240bb)">
     <use xlink:href="#m6a0f7873d5" x="393.169242" y="242.419586" style="fill: #bcbd22; stroke: #bcbd22"/>
    </g>
   </g>
   <g id="PathCollection_100">
    <g clip-path="url(#p8c4df240bb)">
     <use xlink:href="#m70f4a0506c" x="225.270095" y="234.371184" style="fill: #17becf; stroke: #17becf"/>
    </g>
   </g>
   <g id="PathCollection_101">
    <g clip-path="url(#p8c4df240bb)">
     <use xlink:href="#mb66dfa3d4f" x="89.62165" y="343.089608" style="fill: #1f77b4; stroke: #1f77b4"/>
    </g>
   </g>
   <g id="line2d_1">
    <path d="M 7.2 7.2 
L 506.16 7.2 
L 506.16 506.16 
L 7.2 506.16 
L 7.2 7.2 
" clip-path="url(#p8c4df240bb)" style="fill: none; stroke: #000000; stroke-width: 0.5; stroke-linecap: square"/>
   </g>
   <g id="line2d_2">
    <path d="M 7.2 7.2 
L 256.68 7.2 
L 256.68 256.68 
L 7.2 256.68 
L 7.2 7.2 
" clip-path="url(#p8c4df240bb)" style="fill: none; stroke: #000000; stroke-width: 0.5; stroke-linecap: square"/>
   </g>
   <g id="line2d_3">
    <path d="M 7.2 7.2 
L 131.94 7.2 
L 131.94 131.94 
L 7.2 131.94 
L 7.2 7.2 
" clip-path="url(#p8c4df240bb)" style="fill: none; stroke: #000000; stroke-width: 0.5; stroke-linecap: square"/>
   </g>
   <g id="line2d_4">
    <path d="M 131.94 7.2 
L 256.68 7.2 
L 256.68 131.94 
L 131.94 131.94 
L 131.94 7.2 
" clip-path="url(#p8c4df240bb)" style="fill: none; stroke: #000000; stroke-width: 0.5; stroke-linecap: square"/>
   </g>
   <g id="line2d_5">
    <path d="M 7.2 131.94 
L 131.94 131.94 
L 131.94 256.68 
L 7.2 256.68 
L 7.2 131.94 
" clip-path="url(#p8c4df240bb)" style="fill: none; stroke: #000000; stroke-width: 0.5; stroke-linecap: square"/>
   </g>
   <g id="line2d_6">
    <path d="M 131.94 131.94 
L 256.68 131.94 
L 256.68 256.68 
L 131.94 256.68 
L 131.94 131.94 
" clip-path="url(#p8c4df240bb)" style="fill: none; stroke: #000000; stroke-width: 0.5; stroke-linecap: square"/>
   </g>
   <g id="line2d_7">
    <path d="M 131.94 131.94 
L 194.31 131.94 
L 194.31 194.31 
L 131.94 194.31 
L 131.94 131.94 
" clip-path="url(#p8c4df240bb)" style="fill: none; stroke: #000000; stroke-width: 0.5; stroke-linecap: square"/>
   </g>
   <g id="line2d_8">
    <path d="M 194.31 131.94 
L 256.68 131.94 
L 256.68 194.31 
L 194.31 194.31 
L 194.31 131.94 
" clip-path="url(#p8c4df240bb)" style="fill: none; stroke: #000000; stroke-width: 0.5; stroke-linecap: square"/>
   </g>
   <g id="line2d_9">
    <path d="M 131.94 194.31 
L 194.31 194.31 
L 194.31 256.68 
L 131.94 256.68 
L 131.94 194.31 
" clip-path="url(#p8c4df240bb)" style="fill: none; stroke: #000000; stroke-width: 0.5; stroke-linecap: square"/>
   </g>
   <g id="line2d_10">
    <path d="M 194.31 194.31 
L 256.68 194.31 
L 256.68 256.68 
L 194.31 256.68 
L 194.31 194.31 
" clip-path="url(#p8c4df240bb)" style="fill: none; stroke: #000000; stroke-width: 0.5; stroke-linecap: square"/>
   </g>
   <g id="line2d_11">
    <path d="M 194.31 194.31 
L 225.495 194.31 
L 225.495 225.495 
L 194.31 225.495 
L 194.31 194.31 
" clip-path="url(#p8c4df240bb)" style="fill: none; stroke: #000000; stroke-width: 0.5; stroke-linecap: square"/>
   </g>
   <g id="line2d_12">
    <path d="M 225.495 194.31 
L 256.68 194.31 
L 256.68 225.495 
L 225.495 225.495 
L 225.495 194.31 
" clip-path="url(#p8c4df240bb)" style="fill: none; stroke: #000000; stroke-width: 0.5; stroke-linecap: square"/>
   </g>
   <g id="line2d_13">
    <path d="M 194.31 225.495 
L 225.495 225.495 
L 225.495 256.68 
L 194.31 256.68 
L 194.31 225.495 
" clip-path="url(#p8c4df240bb)" style="fill: none; stroke: #000000; stroke-width: 0.5; stroke-linecap: square"/>
   </g>
   <g id="line2d_14">
    <path d="M 194.31 225.495 
L 209.9025 225.495 
L 209.9025 241.0875 
L 194.31 241.0875 
L 194.31 225.495 
" clip-path="url(#p8c4df240bb)" style="fill: none; stroke: #000000; stroke-width: 0.5; stroke-linecap: square"/>
   </g>
   <g id="line2d_15">
    <path d="M 209.9025 225.495 
L 225.495 225.495 
L 225.495 241.0875 
L 209.9025 241.0875 
L 209.9025 225.495 
" clip-path="url(#p8c4df240bb)" style="fill: none; stroke: #000000; stroke-width: 0.5; stroke-linecap: square"/>
   </g>
   <g id="line2d_16">
    <path d="M 194.31 241.0875 
L 209.9025 241.0875 
L 209.9025 256.68 
L 194.31 256.68 
L 194.31 241.0875 
" clip-path="url(#p8c4df240bb)" style="fill: none; stroke: #000000; stroke-width: 0.5; stroke-linecap: square"/>
   </g>
   <g id="line2d_17">
    <path d="M 209.9025 241.0875 
L 225.495 241.0875 
L 225.495 256.68 
L 209.9025 256.68 
L 209.9025 241.0875 
" clip-path="url(#p8c4df240bb)" style="fill: none; stroke: #000000; stroke-width: 0.5; stroke-linecap: square"/>
   </g>
   <g id="line2d_18">
    <path d="M 225.495 225.495 
L 256.68 225.495 
L 256.68 256.68 
L 225.495 256.68 
L 225.495 225.495 
" clip-path="url(#p8c4df240bb)" style="fill: none; stroke: #000000; stroke-width: 0.5; stroke-linecap: square"/>
   </g>
   <g id="line2d_19">
    <path d="M 225.495 225.495 
L 241.0875 225.495 
L 241.0875 241.0875 
L 225.495 241.0875 
L 225.495 225.495 
" clip-path="url(#p8c4df240bb)" style="fill: none; stroke: #000000; stroke-width: 0.5; stroke-linecap: square"/>
   </g>
   <g id="line2d_20">
    <path d="M 241.0875 225.495 
L 256.68 225.495 
L 256.68 241.0875 
L 241.0875 241.0875 
L 241.0875 225.495 
" clip-path="url(#p8c4df240bb)" style="fill: none; stroke: #000000; stroke-width: 0.5; stroke-linecap: square"/>
   </g>
   <g id="line2d_21">
    <path d="M 225.495 241.0875 
L 241.0875 241.0875 
L 241.0875 256.68 
L 225.495 256.68 
L 225.495 241.0875 
" clip-path="url(#p8c4df240bb)" style="fill: none; stroke: #000000; stroke-width: 0.5; stroke-linecap: square"/>
   </g>
   <g id="line2d_22">
    <path d="M 225.495 241.0875 
L 233.29125 241.0875 
L 233.29125 248.88375 
L 225.495 248.88375 
L 225.495 241.0875 
" clip-path="url(#p8c4df240bb)" style="fill: none; stroke: #000000; stroke-width: 0.5; stroke-linecap: square"/>
   </g>
   <g id="line2d_23">
    <path d="M 233.29125 241.0875 
L 241.0875 241.0875 
L 241.0875 248.88375 
L 233.29125 248.88375 
L 233.29125 241.0875 
" clip-path="url(#p8c4df240bb)" style="fill: none; stroke: #000000; stroke-width: 0.5; stroke-linecap: square"/>
   </g>
   <g id="line2d_24">
    <path d="M 225.495 248.88375 
L 233.29125 248.88375 
L 233.29125 256.68 
L 225.495 256.68 
L 225.495 248.88375 
" clip-path="url(#p8c4df240bb)" style="fill: none; stroke: #000000; stroke-width: 0.5; stroke-linecap: square"/>
   </g>
   <g id="line2d_25">
    <path d="M 233.29125 248.88375 
L 241.0875 248.88375 
L 241.0875 256.68 
L 233.29125 256.68 
L 233.29125 248.88375 
" clip-path="url(#p8c4df240bb)" style="fill: none; stroke: #000000; stroke-width: 0.5; stroke-linecap: square"/>
   </g>
   <g id="line2d_26">
    <path d="M 241.0875 241.0875 
L 256.68 241.0875 
L 256.68 256.68 
L 241.0875 256.68 
L 241.0875 241.0875 
" clip-path="url(#p8c4df240bb)" style="fill: none; stroke: #000000; stroke-width: 0.5; stroke-linecap: square"/>
   </g>
   <g id="line2d_27">
    <path d="M 256.68 7.2 
L 506.16 7.2 
L 506.16 256.68 
L 256.68 256.68 
L 256.68 7.2 
" clip-path="url(#p8c4df240bb)" style="fill: none; stroke: #000000; stroke-width: 0.5; stroke-linecap: square"/>
   </g>
   <g id="line2d_28">
    <path d="M 256.68 7.2 
L 381.42 7.2 
L 381.42 131.94 
L 256.68 131.94 
L 256.68 7.2 
" clip-path="url(#p8c4df240bb)" style="fill: none; stroke: #000000; stroke-width: 0.5; stroke-linecap: square"/>
   </g>
   <g id="line2d_29">
    <path d="M 381.42 7.2 
L 506.16 7.2 
L 506.16 131.94 
L 381.42 131.94 
L 381.42 7.2 
" clip-path="url(#p8c4df240bb)" style="fill: none; stroke: #000000; stroke-width: 0.5; stroke-linecap: square"/>
   </g>
   <g id="line2d_30">
    <path d="M 256.68 131.94 
L 381.42 131.94 
L 381.42 256.68 
L 256.68 256.68 
L 256.68 131.94 
" clip-path="url(#p8c4df240bb)" style="fill: none; stroke: #000000; stroke-width: 0.5; stroke-linecap: square"/>
   </g>
   <g id="line2d_31">
    <path d="M 256.68 131.94 
L 319.05 131.94 
L 319.05 194.31 
L 256.68 194.31 
L 256.68 131.94 
" clip-path="url(#p8c4df240bb)" style="fill: none; stroke: #000000; stroke-width: 0.5; stroke-linecap: square"/>
   </g>
   <g id="line2d_32">
    <path d="M 319.05 131.94 
L 381.42 131.94 
L 381.42 194.31 
L 319.05 194.31 
L 319.05 131.94 
" clip-path="url(#p8c4df240bb)" style="fill: none; stroke: #000000; stroke-width: 0.5; stroke-linecap: square"/>
   </g>
   <g id="line2d_33">
    <path d="M 256.68 194.31 
L 319.05 194.31 
L 319.05 256.68 
L 256.68 256.68 
L 256.68 194.31 
" clip-path="url(#p8c4df240bb)" style="fill: none; stroke: #000000; stroke-width: 0.5; stroke-linecap: square"/>
   </g>
   <g id="line2d_34">
    <path d="M 256.68 194.31 
L 287.865 194.31 
L 287.865 225.495 
L 256.68 225.495 
L 256.68 194.31 
" clip-path="url(#p8c4df240bb)" style="fill: none; stroke: #000000; stroke-width: 0.5; stroke-linecap: square"/>
   </g>
   <g id="line2d_35">
    <path d="M 287.865 194.31 
L 319.05 194.31 
L 319.05 225.495 
L 287.865 225.495 
L 287.865 194.31 
" clip-path="url(#p8c4df240bb)" style="fill: none; stroke: #000000; stroke-width: 0.5; stroke-linecap: square"/>
   </g>
   <g id="line2d_36">
    <path d="M 256.68 225.495 
L 287.865 225.495 
L 287.865 256.68 
L 256.68 256.68 
L 256.68 225.495 
" clip-path="url(#p8c4df240bb)" style="fill: none; stroke: #000000; stroke-width: 0.5; stroke-linecap: square"/>
   </g>
   <g id="line2d_37">
    <path d="M 287.865 225.495 
L 319.05 225.495 
L 319.05 256.68 
L 287.865 256.68 
L 287.865 225.495 
" clip-path="url(#p8c4df240bb)" style="fill: none; stroke: #000000; stroke-width: 0.5; stroke-linecap: square"/>
   </g>
   <g id="line2d_38">
    <path d="M 319.05 194.31 
L 381.42 194.31 
L 381.42 256.68 
L 319.05 256.68 
L 319.05 194.31 
" clip-path="url(#p8c4df240bb)" style="fill: none; stroke: #000000; stroke-width: 0.5; stroke-linecap: square"/>
   </g>
   <g id="line2d_39">
    <path d="M 381.42 131.94 
L 506.16 131.94 
L 506.16 256.68 
L 381.42 256.68 
L 381.42 131.94 
" clip-path="url(#p8c4df240bb)" style="fill: none; stroke: #000000; stroke-width: 0.5; stroke-linecap: square"/>
   </g>
   <g id="line2d_40">
    <path d="M 381.42 131.94 
L 443.79 131.94 
L 443.79 194.31 
L 381.42 194.31 
L 381.42 131.94 
" clip-path="url(#p8c4df240bb)" style="fill: none; stroke: #000000; stroke-width: 0.5; stroke-linecap: square"/>
   </g>
   <g id="line2d_41">
    <path d="M 443.79 131.94 
L 506.16 131.94 
L 506.16 194.31 
L 443.79 194.31 
L 443.79 131.94 
" clip-path="url(#p8c4df240bb)" style="fill: none; stroke: #000000; stroke-width: 0.5; stroke-linecap: square"/>
   </g>
   <g id="line2d_42">
    <path d="M 381.42 194.31 
L 443.79 194.31 
L 443.79 256.68 
L 381.42 256.68 
L 381.42 194.31 
" clip-path="url(#p8c4df240bb)" style="fill: none; stroke: #000000; stroke-width: 0.5; stroke-linecap: square"/>
   </g>
   <g id="line2d_43">
    <path d="M 443.79 194.31 
L 506.16 194.31 
L 506.16 256.68 
L 443.79 256.68 
L 443.79 194.31 
" clip-path="url(#p8c4df240bb)" style="fill: none; stroke: #000000; stroke-width: 0.5; stroke-linecap: square"/>
   </g>
   <g id="line2d_44">
    <path d="M 7.2 256.68 
L 256.68 256.68 
L 256.68 506.16 
L 7.2 506.16 
L 7.2 256.68 
" clip-path="url(#p8c4df240bb)" style="fill: none; stroke: #000000; stroke-width: 0.5; stroke-linecap: square"/>
   </g>
   <g id="line2d_45">
    <path d="M 7.2 256.68 
L 131.94 256.68 
L 131.94 381.42 
L 7.2 381.42 
L 7.2 256.68 
" clip-path="url(#p8c4df240bb)" style="fill: none; stroke: #000000; stroke-width: 0.5; stroke-linecap: square"/>
   </g>
   <g id="line2d_46">
    <path d="M 7.2 256.68 
L 69.57 256.68 
L 69.57 319.05 
L 7.2 319.05 
L 7.2 256.68 
" clip-path="url(#p8c4df240bb)" style="fill: none; stroke: #000000; stroke-width: 0.5; stroke-linecap: square"/>
   </g>
   <g id="line2d_47">
    <path d="M 69.57 256.68 
L 131.94 256.68 
L 131.94 319.05 
L 69.57 319.05 
L 69.57 256.68 
" clip-path="url(#p8c4df240bb)" style="fill: none; stroke: #000000; stroke-width: 0.5; stroke-linecap: square"/>
   </g>
   <g id="line2d_48">
    <path d="M 7.2 319.05 
L 69.57 319.05 
L 69.57 381.42 
L 7.2 381.42 
L 7.2 319.05 
" clip-path="url(#p8c4df240bb)" style="fill: none; stroke: #000000; stroke-width: 0.5; stroke-linecap: square"/>
   </g>
   <g id="line2d_49">
    <path d="M 69.57 319.05 
L 131.94 319.05 
L 131.94 381.42 
L 69.57 381.42 
L 69.57 319.05 
" clip-path="url(#p8c4df240bb)" style="fill: none; stroke: #000000; stroke-width: 0.5; stroke-linecap: square"/>
   </g>
   <g id="line2d_50">
    <path d="M 131.94 256.68 
L 256.68 256.68 
L 256.68 381.42 
L 131.94 381.42 
L 131.94 256.68 
" clip-path="url(#p8c4df240bb)" style="fill: none; stroke: #000000; stroke-width: 0.5; stroke-linecap: square"/>
   </g>
   <g id="line2d_51">
    <path d="M 131.94 256.68 
L 194.31 256.68 
L 194.31 319.05 
L 131.94 319.05 
L 131.94 256.68 
" clip-path="url(#p8c4df240bb)" style="fill: none; stroke: #000000; stroke-width: 0.5; stroke-linecap: square"/>
   </g>
   <g id="line2d_52">
    <path d="M 194.31 256.68 
L 256.68 256.68 
L 256.68 319.05 
L 194.31 319.05 
L 194.31 256.68 
" clip-path="url(#p8c4df240bb)" style="fill: none; stroke: #000000; stroke-width: 0.5; stroke-linecap: square"/>
   </g>
   <g id="line2d_53">
    <path d="M 194.31 256.68 
L 225.495 256.68 
L 225.495 287.865 
L 194.31 287.865 
L 194.31 256.68 
" clip-path="url(#p8c4df240bb)" style="fill: none; stroke: #000000; stroke-width: 0.5; stroke-linecap: square"/>
   </g>
   <g id="line2d_54">
    <path d="M 225.495 256.68 
L 256.68 256.68 
L 256.68 287.865 
L 225.495 287.865 
L 225.495 256.68 
" clip-path="url(#p8c4df240bb)" style="fill: none; stroke: #000000; stroke-width: 0.5; stroke-linecap: square"/>
   </g>
   <g id="line2d_55">
    <path d="M 225.495 256.68 
L 241.0875 256.68 
L 241.0875 272.2725 
L 225.495 272.2725 
L 225.495 256.68 
" clip-path="url(#p8c4df240bb)" style="fill: none; stroke: #000000; stroke-width: 0.5; stroke-linecap: square"/>
   </g>
   <g id="line2d_56">
    <path d="M 241.0875 256.68 
L 256.68 256.68 
L 256.68 272.2725 
L 241.0875 272.2725 
L 241.0875 256.68 
" clip-path="url(#p8c4df240bb)" style="fill: none; stroke: #000000; stroke-width: 0.5; stroke-linecap: square"/>
   </g>
   <g id="line2d_57">
    <path d="M 225.495 272.2725 
L 241.0875 272.2725 
L 241.0875 287.865 
L 225.495 287.865 
L 225.495 272.2725 
" clip-path="url(#p8c4df240bb)" style="fill: none; stroke: #000000; stroke-width: 0.5; stroke-linecap: square"/>
   </g>
   <g id="line2d_58">
    <path d="M 241.0875 272.2725 
L 256.68 272.2725 
L 256.68 287.865 
L 241.0875 287.865 
L 241.0875 272.2725 
" clip-path="url(#p8c4df240bb)" style="fill: none; stroke: #000000; stroke-width: 0.5; stroke-linecap: square"/>
   </g>
   <g id="line2d_59">
    <path d="M 194.31 287.865 
L 225.495 287.865 
L 225.495 319.05 
L 194.31 319.05 
L 194.31 287.865 
" clip-path="url(#p8c4df240bb)" style="fill: none; stroke: #000000; stroke-width: 0.5; stroke-linecap: square"/>
   </g>
   <g id="line2d_60">
    <path d="M 225.495 287.865 
L 256.68 287.865 
L 256.68 319.05 
L 225.495 319.05 
L 225.495 287.865 
" clip-path="url(#p8c4df240bb)" style="fill: none; stroke: #000000; stroke-width: 0.5; stroke-linecap: square"/>
   </g>
   <g id="line2d_61">
    <path d="M 131.94 319.05 
L 194.31 319.05 
L 194.31 381.42 
L 131.94 381.42 
L 131.94 319.05 
" clip-path="url(#p8c4df240bb)" style="fill: none; stroke: #000000; stroke-width: 0.5; stroke-linecap: square"/>
   </g>
   <g id="line2d_62">
    <path d="M 194.31 319.05 
L 256.68 319.05 
L 256.68 381.42 
L 194.31 381.42 
L 194.31 319.05 
" clip-path="url(#p8c4df240bb)" style="fill: none; stroke: #000000; stroke-width: 0.5; stroke-linecap: square"/>
   </g>
   <g id="line2d_63">
    <path d="M 7.2 381.42 
L 131.94 381.42 
L 131.94 506.16 
L 7.2 506.16 
L 7.2 381.42 
" clip-path="url(#p8c4df240bb)" style="fill: none; stroke: #000000; stroke-width: 0.5; stroke-linecap: square"/>
   </g>
   <g id="line2d_64">
    <path d="M 131.94 381.42 
L 256.68 381.42 
L 256.68 506.16 
L 131.94 506.16 
L 131.94 381.42 
" clip-path="url(#p8c4df240bb)" style="fill: none; stroke: #000000; stroke-width: 0.5; stroke-linecap: square"/>
   </g>
   <g id="line2d_65">
    <path d="M 256.68 256.68 
L 506.16 256.68 
L 506.16 506.16 
L 256.68 506.16 
L 256.68 256.68 
" clip-path="url(#p8c4df240bb)" style="fill: none; stroke: #000000; stroke-width: 0.5; stroke-linecap: square"/>
   </g>
   <g id="line2d_66">
    <path d="M 256.68 256.68 
L 381.42 256.68 
L 381.42 381.42 
L 256.68 381.42 
L 256.68 256.68 
" clip-path="url(#p8c4df240bb)" style="fill: none; stroke: #000000; stroke-width: 0.5; stroke-linecap: square"/>
   </g>
   <g id="line2d_67">
    <path d="M 256.68 256.68 
L 319.05 256.68 
L 319.05 319.05 
L 256.68 319.05 
L 256.68 256.68 
" clip-path="url(#p8c4df240bb)" style="fill: none; stroke: #000000; stroke-width: 0.5; stroke-linecap: square"/>
   </g>
   <g id="line2d_68">
    <path d="M 256.68 256.68 
L 287.865 256.68 
L 287.865 287.865 
L 256.68 287.865 
L 256.68 256.68 
" clip-path="url(#p8c4df240bb)" style="fill: none; stroke: #000000; stroke-width: 0.5; stroke-linecap: square"/>
   </g>
   <g id="line2d_69">
    <path d="M 256.68 256.68 
L 272.2725 256.68 
L 272.2725 272.2725 
L 256.68 272.2725 
L 256.68 256.68 
" clip-path="url(#p8c4df240bb)" style="fill: none; stroke: #000000; stroke-width: 0.5; stroke-linecap: square"/>
   </g>
   <g id="line2d_70">
    <path d="M 272.2725 256.68 
L 287.865 256.68 
L 287.865 272.2725 
L 272.2725 272.2725 
L 272.2725 256.68 
" clip-path="url(#p8c4df240bb)" style="fill: none; stroke: #000000; stroke-width: 0.5; stroke-linecap: square"/>
   </g>
   <g id="line2d_71">
    <path d="M 256.68 272.2725 
L 272.2725 272.2725 
L 272.2725 287.865 
L 256.68 287.865 
L 256.68 272.2725 
" clip-path="url(#p8c4df240bb)" style="fill: none; stroke: #000000; stroke-width: 0.5; stroke-linecap: square"/>
   </g>
   <g id="line2d_72">
    <path d="M 272.2725 272.2725 
L 287.865 272.2725 
L 287.865 287.865 
L 272.2725 287.865 
L 272.2725 272.2725 
" clip-path="url(#p8c4df240bb)" style="fill: none; stroke: #000000; stroke-width: 0.5; stroke-linecap: square"/>
   </g>
   <g id="line2d_73">
    <path d="M 287.865 256.68 
L 319.05 256.68 
L 319.05 287.865 
L 287.865 287.865 
L 287.865 256.68 
" clip-path="url(#p8c4df240bb)" style="fill: none; stroke: #000000; stroke-width: 0.5; stroke-linecap: square"/>
   </g>
   <g id="line2d_74">
    <path d="M 256.68 287.865 
L 287.865 287.865 
L 287.865 319.05 
L 256.68 319.05 
L 256.68 287.865 
" clip-path="url(#p8c4df240bb)" style="fill: none; stroke: #000000; stroke-width: 0.5; stroke-linecap: square"/>
   </g>
   <g id="line2d_75">
    <path d="M 287.865 287.865 
L 319.05 287.865 
L 319.05 319.05 
L 287.865 319.05 
L 287.865 287.865 
" clip-path="url(#p8c4df240bb)" style="fill: none; stroke: #000000; stroke-width: 0.5; stroke-linecap: square"/>
   </g>
   <g id="line2d_76">
    <path d="M 319.05 256.68 
L 381.42 256.68 
L 381.42 319.05 
L 319.05 319.05 
L 319.05 256.68 
" clip-path="url(#p8c4df240bb)" style="fill: none; stroke: #000000; stroke-width: 0.5; stroke-linecap: square"/>
   </g>
   <g id="line2d_77">
    <path d="M 256.68 319.05 
L 319.05 319.05 
L 319.05 381.42 
L 256.68 381.42 
L 256.68 319.05 
" clip-path="url(#p8c4df240bb)" style="fill: none; stroke: #000000; stroke-width: 0.5; stroke-linecap: square"/>
   </g>
   <g id="line2d_78">
    <path d="M 319.05 319.05 
L 381.42 319.05 
L 381.42 381.42 
L 319.05 381.42 
L 319.05 319.05 
" clip-path="url(#p8c4df240bb)" style="fill: none; stroke: #000000; stroke-width: 0.5; stroke-linecap: square"/>
   </g>
   <g id="line2d_79">
    <path d="M 381.42 256.68 
L 506.16 256.68 
L 506.16 381.42 
L 381.42 381.42 
L 381.42 256.68 
" clip-path="url(#p8c4df240bb)" style="fill: none; stroke: #000000; stroke-width: 0.5; stroke-linecap: square"/>
   </g>
   <g id="line2d_80">
    <path d="M 256.68 381.42 
L 381.42 381.42 
L 381.42 506.16 
L 256.68 506.16 
L 256.68 381.42 
" clip-path="url(#p8c4df240bb)" style="fill: none; stroke: #000000; stroke-width: 0.5; stroke-linecap: square"/>
   </g>
   <g id="line2d_81">
    <path d="M 381.42 381.42 
L 506.16 381.42 
L 506.16 506.16 
L 381.42 506.16 
L 381.42 381.42 
" clip-path="url(#p8c4df240bb)" style="fill: none; stroke: #000000; stroke-width: 0.5; stroke-linecap: square"/>
   </g>
   <g id="patch_3">
    <path d="M 7.2 506.16 
L 7.2 7.2 
" style="fill: none; stroke: #000000; stroke-width: 0.8; stroke-linejoin: miter; stroke-linecap: square"/>
   </g>
   <g id="patch_4">
    <path d="M 506.16 506.16 
L 506.16 7.2 
" style="fill: none; stroke: #000000; stroke-width: 0.8; stroke-linejoin: miter; stroke-linecap: square"/>
   </g>
   <g id="patch_5">
    <path d="M 7.2 506.16 
L 506.16 506.16 
" style="fill: none; stroke: #000000; stroke-width: 0.8; stroke-linejoin: miter; stroke-linecap: square"/>
   </g>
   <g id="patch_6">
    <path d="M 7.2 7.2 
L 506.16 7.2 
" style="fill: none; stroke: #000000; stroke-width: 0.8; stroke-linejoin: miter; stroke-linecap: square"/>
   </g>
  </g>
 </g>
 <defs>
  <clipPath id="p8c4df240bb">
   <rect x="7.2" y="7.2" width="498.96" height="498.96"/>
  </clipPath>
 </defs>
</svg>
